<svg width="200" height="200" viewBox="0 0 200 200" xmlns="http://www.w3.org/2000/svg">
  <defs>
    <linearGradient id="grad1" x1="0%" y1="0%" x2="100%" y2="100%">
      <stop offset="0%" style="stop-color:#3B82F6;stop-opacity:1" />
      <stop offset="100%" style="stop-color:#1E40AF;stop-opacity:1" />
    </linearGradient>
  </defs>
  
  <!-- Background circle -->
  <circle cx="100" cy="100" r="90" fill="url(#grad1)" stroke="#1E40AF" stroke-width="2"/>
  
  <!-- Hotel building icon -->
  <rect x="70" y="80" width="60" height="40" fill="white" rx="2"/>
  <rect x="75" y="85" width="8" height="8" fill="#3B82F6"/>
  <rect x="87" y="85" width="8" height="8" fill="#3B82F6"/>
  <rect x="99" y="85" width="8" height="8" fill="#3B82F6"/>
  <rect x="111" y="85" width="8" height="8" fill="#3B82F6"/>
  <rect x="75" y="97" width="8" height="8" fill="#3B82F6"/>
  <rect x="87" y="97" width="8" height="8" fill="#3B82F6"/>
  <rect x="99" y="97" width="8" height="8" fill="#3B82F6"/>
  <rect x="111" y="97" width="8" height="8" fill="#3B82F6"/>
  
  <!-- Door -->
  <rect x="90" y="105" width="20" height="15" fill="#1E40AF"/>
  
  <!-- Roof -->
  <polygon points="70,80 100,60 130,80" fill="#1E40AF"/>
  
  <!-- Text -->
  <text x="100" y="150" font-family="Arial, sans-serif" font-size="14" font-weight="bold" text-anchor="middle" fill="#1E40AF">KABINDA</text>
  <text x="100" y="165" font-family="Arial, sans-serif" font-size="12" text-anchor="middle" fill="#1E40AF">LODGE</text>
</svg>


